<svg width="0" height="0" class="hidden">
  <symbol xmlns="http://www.w3.org/2000/svg" viewBox="0 0 64 64" id="clouds-1">
    <title>Clouds</title>
    <desc>A color styled icon from Orion Icon Library.</desc>
    <path data-name="layer1"
    d="M56 43a12 12 0 0 0-12-12h-1.2a16 16 0 0 0-30.7 4H12a10 10 0 1 0 0 20h32.1A12 12 0 0 0 56 43z"
    fill="#cdf0f0"></path>
    <path data-name="opacity" d="M12 38a17 17 0 0 1 .3-2.8L12 35a10 10 0 1 0 0 20h17a17 17 0 0 1-17-17z"
    fill="#000064" opacity=".1"></path>
    <path data-name="opacity" d="M56 43a12 12 0 0 0-12-12h-1.2a16 16 0 0 0-12.1-9.8h-4.3a15.9 15.9 0 0 0-9.7 4.6 21.9 21.9 0 0 1 21.7 6.7l-1.1.6h.7a15 15 0 0 1 14.6 18.2A12 12 0 0 0 56 43zM41.8 31.2z"
    fill="#fff" opacity=".5"></path>
    <path data-name="layer1" d="M62 27a10 10 0 0 0-10-10 13 13 0 0 0-25 4h1a16 16 0 0 1 14.8 10.1H44a12 12 0 0 1 10.2 5.8A10 10 0 0 0 62 27z"
    fill="#cdf0f0"></path>
    <path data-name="opacity" d="M62 27a10 10 0 0 0-10-10 13 13 0 0 0-25 4h1a16 16 0 0 1 14.8 10.1H44a12 12 0 0 1 10.2 5.8A10 10 0 0 0 62 27z"
    fill="#000064" opacity=".1"></path>
    <path data-name="stroke" d="M54.2 36.7A10 10 0 0 0 52 17a13 13 0 0 0-25 4"
    fill="none" stroke="#2e4369" stroke-linecap="round" stroke-linejoin="round"
    stroke-width="2"></path>
    <path data-name="stroke" d="M56 43a12 12 0 0 0-12-12h-1.2a16 16 0 0 0-30.7 4H12a10 10 0 1 0 0 20h32.1A12 12 0 0 0 56 43z"
    fill="none" stroke="#2e4369" stroke-linecap="round" stroke-linejoin="round"
    stroke-width="2"></path>
  </symbol>
  <symbol viewBox="0 0 64 64" xmlns="http://www.w3.org/2000/svg" id="light-rain-1">
    <title>Light Rain</title>
    <desc>A color styled icon from Orion Icon Library.</desc>
    <path fill="#cdf0f0"
    d="M49 12c-.168 0-.332.019-.5.025a16.98 16.98 0 0 0-32.293 4.448A11 11 0 1 0 13 38h36a13 13 0 0 0 0-26z"
    data-name="layer1"></path>
    <path opacity=".1" fill="#000064" d="M16 20a18.053 18.053 0 0 1 .342-3.483l-.16-.047A11 11 0 1 0 13 38h21a18 18 0 0 1-18-18z"
    data-name="opacity"></path>
    <path opacity=".5" fill="#fff" d="M62 25a13 13 0 0 0-13-13c-.168 0-.331.022-.5.029A17.014 17.014 0 0 0 36.169 2.3a18.205 18.205 0 0 0-1.176-.18l-.254-.028A16.94 16.94 0 0 0 33 2a17.959 17.959 0 0 0-3.172.288 16.887 16.887 0 0 0-8.258 4.151 22.882 22.882 0 0 1 21.4 7.06 13.089 13.089 0 0 0-4.161 3.441 14.937 14.937 0 0 1 19.957 16.622A12.935 12.935 0 0 0 62 25z"
    data-name="opacity"></path>
    <path stroke-width="2" stroke-linejoin="round" stroke-linecap="round"
    stroke="#2e4369" fill="none" d="M49 12.015c-.168 0-.33.02-.5.025a16.98 16.98 0 0 0-32.29 4.447A11 11 0 1 0 13 38.011h36a13 13 0 1 0 0-26zM4 55.991l-1.998 2.497m9.996-12.489l-3.545 4.43m4.336 9.57l-1.6 1.998M23.997 46l-6.369 7.953m12.035-.038l-3.66 4.573m9.996-12.489l-1.602 2m4.952 8.805l-4.159 5.193M47.999 46l-3.896 4.866"
    data-name="stroke"></path>
  </symbol>
  <symbol xmlns="http://www.w3.org/2000/svg" viewBox="0 0 64 64" id="fog-1">
    <title>Fog</title>
    <desc>A color styled icon from Orion Icon Library.</desc>
    <path data-name="layer1"
    d="M59.9 38A13 13 0 0 0 49 18h-.5a17 17 0 0 0-32.3 4.4A11 11 0 0 0 3.2 38z"
    fill="#cdf0f0"></path>
    <path data-name="opacity" d="M20.6 38a17.9 17.9 0 0 1-4.3-15.5h-.2A11 11 0 0 0 3.2 38z"
    fill="#000064" opacity=".1"></path>
    <path data-name="opacity" d="M43 19.5a13.1 13.1 0 0 0-4.2 3.4A15 15 0 0 1 59 37v1h1a13 13 0 0 0-11-20h-.5a17 17 0 0 0-12.3-9.7L35 8.1h-2l-3.2.3a16.9 16.9 0 0 0-8.3 4.2A22.9 22.9 0 0 1 43 19.5z"
    fill="#fff" opacity=".5"></path>
    <path data-name="stroke" d="M62 31a13 13 0 0 0-13-13h-.5a17 17 0 0 0-32.3 4.4A11 11 0 0 0 2 32m0 6h60M8 46h50m-46 8h16m8 0h20"
    fill="none" stroke="#2e4369" stroke-linecap="round" stroke-linejoin="round"
    stroke-width="2"></path>
  </symbol>
  <symbol xmlns="http://www.w3.org/2000/svg" viewBox="0 0 64 64" id="thunderstorm-1">
    <title>Thunderstorm</title>
    <desc>A color styled icon from Orion Icon Library.</desc>
    <path data-name="layer2"
    d="M49 16h-.5a17 17 0 0 0-32.3 4.4A11 11 0 1 0 13 42h36a13 13 0 0 0 0-26z"
    fill="#cdf0f0"></path>
    <path data-name="opacity" d="M16 24a18.1 18.1 0 0 1 .3-3.5h-.2A11 11 0 1 0 13 42h21a18 18 0 0 1-18-18z"
    fill="#000064" opacity=".1"></path>
    <path data-name="opacity" d="M62 29a13 13 0 0 0-13-13h-.5a17 17 0 0 0-12.3-9.7L35 6.1h-2l-3.2.3a16.9 16.9 0 0 0-8.3 4.2A22.9 22.9 0 0 1 43 17.5a13.1 13.1 0 0 0-4.2 3.4 14.9 14.9 0 0 1 20 16.6A12.9 12.9 0 0 0 62 29z"
    fill="#fff" opacity=".5"></path>
    <path data-name="layer1" fill="#ff6" d="M36.7 29L22 45h7.5l-3.3 14L42 42h-7.4l2.1-13z"></path>
    <path data-name="stroke" d="M42 42h7a13 13 0 1 0 0-25.9h-.5a17 17 0 0 0-32.3 4.4A11 11 0 1 0 13 42h11.8"
    fill="none" stroke="#2e4369" stroke-linecap="round" stroke-linejoin="round"
    stroke-width="2"></path>
    <path data-name="stroke" fill="none" stroke="#2e4369" stroke-linecap="round"
    stroke-linejoin="round" stroke-width="2" d="M36.7 29L22 45h7.5l-3.3 14L42 42h-7.4l2.1-13z"></path>
  </symbol>
  <symbol viewBox="0 0 64 64" xmlns="http://www.w3.org/2000/svg" id="heavy-rain-1">
    <title>Heavy Rain</title>
    <desc>A color styled icon from Orion Icon Library.</desc>
    <path fill="#cdf0f0"
    d="M49 12c-.168 0-.332.019-.5.025a16.98 16.98 0 0 0-32.293 4.448A11 11 0 1 0 13 38h36a13 13 0 0 0 0-26z"
    data-name="layer1"></path>
    <path opacity=".1" fill="#000064" d="M16 20a18.053 18.053 0 0 1 .342-3.483l-.16-.047A11 11 0 1 0 13 38h21a18 18 0 0 1-18-18z"
    data-name="opacity"></path>
    <path opacity=".5" fill="#fff" d="M62 25a13 13 0 0 0-13-13c-.168 0-.331.022-.5.029A17.014 17.014 0 0 0 36.169 2.3a18.205 18.205 0 0 0-1.176-.18l-.254-.028A16.94 16.94 0 0 0 33 2a17.959 17.959 0 0 0-3.172.288 16.887 16.887 0 0 0-8.258 4.151 22.882 22.882 0 0 1 21.4 7.06 13.089 13.089 0 0 0-4.161 3.441 14.937 14.937 0 0 1 19.957 16.622A12.935 12.935 0 0 0 62 25z"
    data-name="opacity"></path>
    <path stroke-width="2" stroke-linejoin="round" stroke-linecap="round"
    stroke="#2e4369" fill="none" d="M49 12.015c-.168 0-.33.02-.5.025a16.98 16.98 0 0 0-32.293 4.447A11 11 0 1 0 13 38.011h36a13 13 0 1 0 0-26zM11.998 46l-6.404 8.001M23.998 46L11.19 61.997M36 46l-6.404 8.001M48 46L35.191 61.997"
    data-name="stroke"></path>
  </symbol>
  <symbol viewBox="0 0 64 64" xmlns="http://www.w3.org/2000/svg" id="few-showers-1">
    <title>Few Showers</title>
    <desc>A color styled icon from Orion Icon Library.</desc>
    <path fill="#cdf0f0"
    d="M49 12c-.168 0-.332.019-.5.025a16.98 16.98 0 0 0-32.293 4.448A11 11 0 1 0 13 38h36a13 13 0 0 0 0-26z"
    data-name="layer1"></path>
    <path opacity=".1" fill="#000064" d="M16 20a18.053 18.053 0 0 1 .342-3.483l-.16-.047A11 11 0 1 0 13 38h21a18 18 0 0 1-18-18z"
    data-name="opacity"></path>
    <path opacity=".5" fill="#fff" d="M62 25a13 13 0 0 0-13-13c-.168 0-.331.022-.5.029A17.014 17.014 0 0 0 36.169 2.3a18.205 18.205 0 0 0-1.176-.18l-.254-.028A16.94 16.94 0 0 0 33 2a17.959 17.959 0 0 0-3.172.288 16.887 16.887 0 0 0-8.258 4.151 22.882 22.882 0 0 1 21.4 7.06 13.089 13.089 0 0 0-4.161 3.441 14.937 14.937 0 0 1 19.957 16.622A12.935 12.935 0 0 0 62 25z"
    data-name="opacity"></path>
    <path stroke-width="2" stroke-linejoin="round" stroke-linecap="round"
    stroke="#2e4369" fill="none" d="M49 12.015c-.168 0-.33.019-.5.025a16.98 16.98 0 0 0-32.293 4.447A11 11 0 1 0 13 38.011h36a13 13 0 1 0 0-26zM11.998 46l-2.531 3.163M23.998 46L14.92 57.338M36 46l-2.459 3.072M48 46l-9.078 11.338m-3.731 4.659"
    data-name="stroke"></path>
  </symbol>
  <symbol xmlns="http://www.w3.org/2000/svg" viewBox="0 0 64 64" id="sunny-1">
    <title>Sunny</title>
    <desc>A color styled icon from Orion Icon Library.</desc>
    <circle data-name="layer1"
    cx="32" cy="32" r="14" fill="#fc0"></circle>
    <path data-name="opacity" d="M32 18a14 14 0 0 0-11.3 5.7 14 14 0 0 1 19.6 19.6A14 14 0 0 0 32 18z"
    fill="#fff" opacity=".5"></path>
    <path data-name="stroke" fill="none" stroke="#2e4369" stroke-linecap="round"
    stroke-linejoin="round" stroke-width="2" d="M32 2v16m0 28v16m30-30H46m-28 0H2m8.8-21.2l11.3 11.3m19.8 19.8l11.3 11.3m0-42.4L41.9 22.1M22.1 41.9L10.8 53.2"></path>
    <circle data-name="stroke" cx="32" cy="32" r="14" fill="none" stroke="#2e4369"
    stroke-linecap="round" stroke-linejoin="round" stroke-width="2"></circle>
  </symbol>
  <symbol xmlns="http://www.w3.org/2000/svg" viewBox="0 0 64 64" id="partly-cloudy-1">
    <title>Partly Cloudy</title>
    <desc>A color styled icon from Orion Icon Library.</desc>
    <path data-name="layer2"
    d="M52 36a13 13 0 0 0-25 4.1h-1a8 8 0 1 0 0 16h26a10 10 0 0 0 0-20z" fill="#cdf0f0"></path>
    <path data-name="layer1" d="M34 29.5a10 10 0 1 0-6.9 10 13 13 0 0 1 6.9-10z"
    fill="#fc0"></path>
    <path data-name="opacity" d="M27.1 39.5a13 13 0 0 1 6.9-10 10 10 0 0 0-.2-1.4 13 13 0 0 0-11.7 11.7l1.9.2a10 10 0 0 0 3.1-.5zM27 42a14 14 0 0 1 .1-1.9H26a8 8 0 1 0 0 16h15A14 14 0 0 1 27 42z"
    fill="#000064" opacity=".1"></path>
    <path data-name="opacity" d="M48.2 36.8a10.1 10.1 0 0 0-3.5 2.5L47 39a12 12 0 0 1 11.8 14.3A10 10 0 0 0 52.6 36H52a13 13 0 0 0-20.8-4.6 17.7 17.7 0 0 1 16.9 5.4z"
    fill="#fff" opacity=".5"></path>
    <path data-name="stroke" d="M27.1 39.5a10 10 0 1 1 6.9-10M24 8v6M8 30H2m6.4-15.5l4.3 4.2m26.9-4.2l-4.3 4.2M12.7 41.3l-4.3 4.3"
    fill="none" stroke="#2e4369" stroke-linecap="round" stroke-linejoin="round"
    stroke-width="2"></path>
    <path data-name="stroke" d="M52 36a13 13 0 0 0-25 4.1h-1a8 8 0 1 0 0 16h26a10 10 0 0 0 0-20z"
    fill="none" stroke="#2e4369" stroke-linecap="round" stroke-linejoin="round"
    stroke-width="2"></path>
  </symbol>
  <symbol xmlns="http://www.w3.org/2000/svg" viewBox="0 0 64 64" id="night-light-rain-1">
    <title>Night Light Rain</title>
    <desc>A color styled icon from Orion Icon Library.</desc>
    <path data-name="layer2"
    d="M46.8 38A10.1 10.1 0 0 0 57 28.1a10.1 10.1 0 0 0-10.2-9.9h-1A13.6 13.6 0 0 0 33.1 10a13.5 13.5 0 0 0-13.5 11.5h-.1a8.2 8.2 0 1 0 0 16.5z"
    fill="#cdf0f0"></path>
    <path data-name="opacity" d="M19 24a14 14 0 0 1 .2-2.5 8.2 8.2 0 1 0 .3 16.5H33a14 14 0 0 1-14-14z"
    fill="#000064" opacity=".1"></path>
    <path data-name="opacity" d="M57 28.6v-.5a10.1 10.1 0 0 0-10.2-9.8h-1v-.2A14 14 0 0 0 33.1 10a13.8 13.8 0 0 0-9.2 3.5 16.8 16.8 0 0 1 17.6 6.2 10.1 10.1 0 0 0-1.8 1.5L42 21a13 13 0 0 1 13 13h.1a9.9 9.9 0 0 0 1.9-5z"
    fill="#fff" opacity=".5"></path>
    <path data-name="layer1" d="M19.6 21.5A13.2 13.2 0 0 1 27 11.4 10 10 0 0 0 17 2h-.7a6.9 6.9 0 0 1 .6 3 7 7 0 0 1-7 7 6.9 6.9 0 0 1-2.8-.6c0 .2-.1.4-.1.6a10 10 0 0 0 9.7 10 8.7 8.7 0 0 1 2.8-.5z"
    fill="#e6f0fa"></path>
    <path data-name="opacity" d="M16.7 22a8.7 8.7 0 0 1 2.8-.5h.1A13.2 13.2 0 0 1 27 11.4a9.9 9.9 0 0 0-.4-2.3 13.4 13.4 0 0 0-12 11.4h-.1a8.8 8.8 0 0 0-2.2.3 9.9 9.9 0 0 0 4.4 1.2z"
    fill="#000064" opacity=".1"></path>
    <path data-name="stroke" fill="none" stroke="#2e4369" stroke-linecap="round"
    stroke-linejoin="round" stroke-width="2" d="M17 46l-2.5 3.2M27 46l-9.1 11.3M37 46l-2.5 3.1M47 46l-9.1 11.3M46.8 38A10.1 10.1 0 0 0 57 28.1a10.1 10.1 0 0 0-10.2-9.9h-1A13.6 13.6 0 0 0 33.1 10a13.5 13.5 0 0 0-13.5 11.5h-.1a8.2 8.2 0 1 0 0 16.5z"></path>
    <path data-name="stroke" d="M27 11.4A10 10 0 0 0 17 2h-.7a6.9 6.9 0 0 1 .6 3 7 7 0 0 1-7 7 6.9 6.9 0 0 1-2.8-.6c0 .2-.1.4-.1.6a10 10 0 0 0 9.7 10"
    fill="none" stroke="#2e4369" stroke-linecap="round" stroke-linejoin="round"
    stroke-width="2"></path>
  </symbol>
  <symbol xmlns="http://www.w3.org/2000/svg" viewBox="0 0 64 64" id="half-moon-1">
    <title>Half Moon</title>
    <desc>A color styled icon from Orion Icon Library.</desc>
    <path data-name="layer1"
    d="M33.9 11A16.8 16.8 0 0 1 12 34.1 20.1 20.1 0 1 0 33.9 11z" fill="#e6f0fa"></path>
    <path data-name="opacity" d="M31.9 44.2a20.1 20.1 0 0 1-16.7-8.9 17 17 0 0 1-3.2-1.2 20.1 20.1 0 1 0 39.7-6.6 20.1 20.1 0 0 1-19.8 16.7z"
    fill="#000064" opacity=".15"></path>
    <path data-name="stroke" d="M33.9 11A16.8 16.8 0 0 1 12 34.1 20.1 20.1 0 1 0 33.9 11z"
    fill="none" stroke="#2e4369" stroke-linecap="round" stroke-linejoin="round"
    stroke-width="2"></path>
  </symbol>
  <symbol xmlns="http://www.w3.org/2000/svg" viewBox="0 0 64 64" id="snowflake-1">
    <title>Snowflake</title>
    <desc>A color styled icon from Orion Icon Library.</desc>
    <path data-name="layer1"
    fill="#c4ffff" d="M32 2l-8 10-13.2-1.2L14 25 2 32l13 7-4.2 14.2L25 50l7 12 7-12 14.2 3.2L51 40l11-8-11-8 2.2-13.2L40 12 32 2z"></path>
    <path data-name="opacity" fill="#000064" opacity=".15" d="M11 53l-.1-.3-.1.5L25 50l7 12V32L11 53zm20-21H2l13 7 16-7z"></path>
    <path data-name="opacity" fill="#fff" opacity=".5" d="M33 32h29l-11-8-18 8zm20-21h.2v-.2L40 12 32 2v30l21-21z"></path>
    <path data-name="stroke" fill="none" stroke="#2e4369" stroke-linecap="round"
    stroke-linejoin="round" stroke-width="2" d="M23.4 3.4L32 12l8.6-8.6M23.4 60.6L32 52l8.6 8.6m-37.2-20L12 32l-8.6-8.6m57.2 17.2L52 32l8.6-8.6M5.8 18H18V5.8m28 52.4V46h12.2M18 58.2V46H5.8m52.4-28H46V5.8M2 32h60M32 2v60M10.8 10.8l42.4 42.4m0-42.4L10.8 53.2"></path>
  </symbol>
  <symbol xmlns="http://www.w3.org/2000/svg" viewBox="0 0 64 64" id="mostly-cloudy-light-rain-1">
    <title>Mostly Cloudy Light Rain</title>
    <desc>A color styled icon from Orion Icon Library.</desc>
    <path data-name="layer2"
    d="M50 24a13 13 0 0 0-25 4.1h-1a8 8 0 1 0 0 16h26a10 10 0 0 0 0-20z" fill="#cdf0f0"></path>
    <path data-name="opacity" d="M25 30a14 14 0 0 1 .1-1.9H24a8 8 0 1 0 0 16h15A14 14 0 0 1 25 30z"
    fill="#000064" opacity=".1"></path>
    <path data-name="opacity" d="M46.2 24.8a10.1 10.1 0 0 0-3.5 2.5L45 27a12 12 0 0 1 11.8 14.3A10 10 0 0 0 50.6 24H50a13 13 0 0 0-20.8-4.6 17.7 17.7 0 0 1 16.9 5.4z"
    fill="#fff" opacity=".5"></path>
    <path data-name="layer1" d="M24 28h1.1a13 13 0 0 1 6.1-10 10 10 0 1 0-13.5 13.1A8 8 0 0 1 24 28z"
    fill="#fc0"></path>
    <path data-name="opacity" d="M17.7 31.1A8 8 0 0 1 24 28h1.1a13 13 0 0 1 6.1-10 10 10 0 0 0-.9-1.7 13 13 0 0 0-10.2 11.8H19a7.9 7.9 0 0 0-4 1.1 10 10 0 0 0 2.7 1.9z"
    fill="#000064" opacity=".1"></path>
    <path data-name="stroke" d="M17.7 31a10 10 0 1 1 13.4-13M22 2v4M6 22H2M8.4 8.5l2.3 2.2m24.9-2.2l-2.3 2.2M10.7 33.3l-2.3 2.3"
    fill="none" stroke="#2e4369" stroke-linecap="round" stroke-linejoin="round"
    stroke-width="2"></path>
    <path data-name="stroke" d="M50 24a13 13 0 0 0-25 4.1h-1a8 8 0 0 0 0 16h26a10 10 0 0 0 0-20zM20 50l-2 2m12-2l-6 7m16-7l-2 2m12-2l-7 8m-2.6 4"
    fill="none" stroke="#2e4369" stroke-linecap="round" stroke-linejoin="round"
    stroke-width="2"></path>
  </symbol>
   <symbol xmlns="http://www.w3.org/2000/svg" viewBox="0 0 64 64" id="night-cloudy-1">
    <title>Night Cloudy</title>
    <desc>A color styled icon from Orion Icon Library.</desc>
    <path data-name="layer2"
    d="M62 42a12 12 0 0 0-12-12h-1.2a16 16 0 0 0-30.7 4H18a10 10 0 1 0 0 20h32.1A12 12 0 0 0 62 42z"
    fill="#cdf0f0"></path>
    <path data-name="opacity" d="M18 37a17 17 0 0 1 .3-2.8L18 34a10 10 0 1 0 0 20h17a17 17 0 0 1-17-17z"
    fill="#000064" opacity=".1"></path>
    <path data-name="opacity" d="M62 42a12 12 0 0 0-12-12h-1.2a16 16 0 0 0-12.1-9.8h-4.3a15.9 15.9 0 0 0-9.7 4.6 21.9 21.9 0 0 1 21.7 6.7l-1.1.6h.7a15 15 0 0 1 14.6 18.2A12 12 0 0 0 62 42zM47.8 30.2z"
    fill="#fff" opacity=".5"></path>
    <path data-name="layer1" d="M18.1 34a16 16 0 0 1 11.8-13.5A14 14 0 0 0 16 8h-.8A10 10 0 0 1 2 21.2v.8a14 14 0 0 0 10.6 13.6A9.9 9.9 0 0 1 18 34z"
    fill="#e6f0fa"></path>
    <path data-name="opacity" d="M12.6 35.6A9.9 9.9 0 0 1 18 34h.1a16 16 0 0 1 11.8-13.5v-.3L27 20a16 16 0 0 0-15.9 14H11l-1.9.2a13.9 13.9 0 0 0 3.5 1.4z"
    fill="#000064" opacity=".15"></path>
    <path data-name="stroke" d="M29.9 20.6A14 14 0 0 0 16 8h-.8A10 10 0 0 1 2 21.2v.8a14 14 0 0 0 10.6 13.6"
    fill="none" stroke="#2e4369" stroke-linecap="round" stroke-linejoin="round"
    stroke-width="2"></path>
    <path data-name="stroke" d="M62 42a12 12 0 0 0-12-12h-1.2a16 16 0 0 0-30.7 4H18a10 10 0 1 0 0 20h32.1A12 12 0 0 0 62 42z"
    fill="none" stroke="#2e4369" stroke-linecap="round" stroke-linejoin="round"
    stroke-width="2"></path>
  </symbol>
</svg>